<svg xmlns="http://www.w3.org/2000/svg" xmlns:xlink="http://www.w3.org/1999/xlink" width="257.037" height="72.923" viewBox="0 0 257.037 72.923">
  <defs>
    <linearGradient id="linear-gradient" y1="0.499" x2="1" y2="0.499" gradientUnits="objectBoundingBox">
      <stop offset="0" stop-color="#32b46f"/>
      <stop offset="0.515" stop-color="#46be6f"/>
      <stop offset="1" stop-color="#5abe6f"/>
    </linearGradient>
    <linearGradient id="linear-gradient-2" x1="0.345" y1="1.02" x2="0.574" y2="0.118" gradientUnits="objectBoundingBox">
      <stop offset="0" stop-color="#64c86e"/>
      <stop offset="0.515" stop-color="#64c86e"/>
      <stop offset="1" stop-color="#79d97c"/>
    </linearGradient>
    <linearGradient id="linear-gradient-3" x1="0.244" y1="0.102" x2="0.655" y2="0.932" gradientUnits="objectBoundingBox">
      <stop offset="0" stop-color="#41b46f"/>
      <stop offset="0.515" stop-color="#32b46f"/>
      <stop offset="1" stop-color="#32b46f"/>
    </linearGradient>
    <linearGradient id="linear-gradient-4" x1="0.786" y1="0.98" x2="0.152" y2="-0.061" gradientUnits="objectBoundingBox">
      <stop offset="0" stop-color="#56c271"/>
      <stop offset="0.515" stop-color="#64c86e"/>
      <stop offset="1" stop-color="#79d97c"/>
    </linearGradient>
    <linearGradient id="linear-gradient-5" x1="0.268" y1="0.879" x2="0.879" y2="0.139" gradientUnits="objectBoundingBox">
      <stop offset="0" stop-color="#28af6f"/>
      <stop offset="0.515" stop-color="#32b46f"/>
      <stop offset="1" stop-color="#50be6f"/>
    </linearGradient>
    <linearGradient id="linear-gradient-6" x1="0.493" y1="0.079" x2="0.517" y2="0.845" gradientUnits="objectBoundingBox">
      <stop offset="0" stop-color="#79d97c"/>
      <stop offset="0.515" stop-color="#64c86e"/>
      <stop offset="1" stop-color="#56c271"/>
    </linearGradient>
  </defs>
  <g id="Symbols" transform="translate(-0.001 -0.068)">
    <g id="Global_Top" data-name="Global/Top" transform="translate(0.001 0.068)">
      <g id="Logo---Negative" transform="translate(0 0)">
        <path id="phases" d="M63.283,17.357c8.19,0,13.217,6.383,13.217,14.8s-5.084,14.8-13.274,14.8c-5.14,0-8.642-2.768-9.941-5.366V58.477H49.67v-40.5h3.389l.056,4.858A11.764,11.764,0,0,1,63.283,17.357Zm-.339,3.389c-5.14,0-9.715,3.9-9.715,10.619v1.186c0,6.948,4.632,11.014,9.659,11.014,5.987,0,10-4.8,10-11.41S69.1,20.746,62.944,20.746ZM86.667,5.1v17c.9-2.259,3.9-4.745,8.021-4.745,6.157,0,9.263,4.462,9.263,10.675v18.3h-3.558V28.371c0-4.971-2.429-7.569-6.27-7.569-4.236,0-7.456,3.671-7.456,9.772V46.333H83.108V5.1Zm34.851,12.257c6.27,0,9.715,3.671,9.715,10.054V46.333h-3.389l-.113-4.123a10.022,10.022,0,0,1-8.981,4.745c-4.914,0-8.021-3.107-8.021-7.569,0-4.745,3.05-7.117,7.682-8.077l9.207-1.92V27.524c0-4.745-2.316-6.835-6.1-6.835-3.615,0-6.439,1.977-6.439,6.1H111.52C111.576,21.48,115.474,17.357,121.518,17.357Zm6.1,15.251-8.529,1.864c-2.711.678-4.745,1.807-4.745,4.858,0,2.655,1.751,4.293,4.858,4.293a8.27,8.27,0,0,0,6.552-3.05,9.492,9.492,0,0,0,1.864-5.592Zm19.826-15.251c5.309,0,8.924,3.22,8.981,8.529h-3.671c-.056-3.446-1.92-5.2-5.422-5.2-3.446,0-5.253,1.864-5.253,4.462,0,2.881,1.469,3.784,6.1,5.027,6.439,1.751,9.207,3.954,9.207,8.416,0,5.2-4.01,8.36-9.6,8.36-6.383,0-10.054-3.671-10.111-8.924h3.671c.056,3.558,2.429,5.592,6.552,5.592,4.01,0,5.874-2.146,5.874-4.858,0-2.768-1.638-4.123-6.778-5.422-5.535-1.412-8.529-3.333-8.529-8.021C138.463,21.028,141.626,17.357,147.444,17.357Zm27.9,0c7.512,0,12.878,4.914,12.878,14.177v1.977H165.688c.282,6.27,4.406,10.111,9.828,10.111,4.293,0,7.4-1.92,8.7-5.309h3.671c-1.695,5.422-6.044,8.642-12.426,8.642-7.795,0-13.387-5.818-13.387-14.742C162.073,23.683,167.27,17.357,175.347,17.357Zm0,3.333c-5.479,0-9.207,4.01-9.659,9.6H184.61C184.61,24.248,180.939,20.69,175.347,20.69Zm27.9-3.333c5.309,0,8.924,3.22,8.981,8.529h-3.671c-.056-3.446-1.92-5.2-5.422-5.2-3.445,0-5.253,1.864-5.253,4.462,0,2.881,1.469,3.784,6.1,5.027,6.439,1.751,9.207,3.954,9.207,8.416,0,5.2-4.01,8.36-9.6,8.36-6.383,0-10.054-3.671-10.111-8.924h3.671c.056,3.558,2.429,5.592,6.552,5.592,4.01,0,5.874-2.146,5.874-4.858,0-2.768-1.638-4.123-6.778-5.422-5.535-1.412-8.529-3.333-8.529-8.021C194.269,21.028,197.432,17.357,203.25,17.357Z" transform="translate(43.846 4.375)" fill="#fff" fill-rule="evenodd"/>
        <g id="Group">
          <g id="Shape" transform="translate(9.541)">
            <path id="Path_16" data-name="Path 16" d="M30.374,11.324c17.545,5.264,21.864.687,20.784-2.441C50.078,6.365,44.68,4.5,42.289,3.275,38.78,4.191,22.7,1.978,14.95,4,4.616,6.67,2.765,13.574,3.806,13.5,5.888,13.307,15.605,6.9,30.374,11.324Z" transform="translate(3.005 2.624)" fill="url(#linear-gradient)"/>
            <path id="Path_17" data-name="Path 17" d="M53.807,10.926a5.811,5.811,0,0,1,.424.61A3.453,3.453,0,0,0,53.807,10.926ZM10.466,33.164c7.982,2.975,15.116-2.441,22.21-16.974,6.131-12.588,18.2-9,21.169-5.264a7.745,7.745,0,0,0-.694-.877h0A36.5,36.5,0,0,0,44.9,4.289C32.522-2.043,17.908-1.166,7.381,6.348-5.074,15.122.016,29.312,10.466,33.164Z" transform="translate(-0.069 -0.068)" fill="url(#linear-gradient-2)"/>
          </g>
          <g id="Shape-2" data-name="Shape" transform="translate(0 26.552)">
            <path id="Path_18" data-name="Path 18" d="M13.842,18C9.691.043,3.542-1.392,1.352,1.129-.3,3.379.737,9,.89,11.717c2.536,2.6,8.647,17.724,14.258,23.425,7.533,7.64,14.45,5.74,13.835,4.887C27.792,38.323,17.339,33.126,13.842,18Z" transform="translate(0.375 -0.17)" fill="url(#linear-gradient-3)"/>
            <path id="Path_19" data-name="Path 19" d="M1.382,1.4c.115-.233.192-.465.307-.7A5.52,5.52,0,0,0,1.382,1.4Zm41.006,26.45c-1.383-8.455-9.646-11.907-25.864-10.7C2.5,18.192-.385,5.9,1.382,1.4A9.082,9.082,0,0,0,.96,2.484h0A37.928,37.928,0,0,0,.037,12.568c.653,14,8.685,26.3,20.484,31.647C34.395,50.537,44.233,38.9,42.389,27.849Z" transform="translate(-0.001 0.297)" fill="url(#linear-gradient-4)"/>
          </g>
          <g id="Shape-3" data-name="Shape" transform="translate(43.592 18.943)">
            <path id="Path_20" data-name="Path 20" d="M10.582,29.97C-2.56,42.837-.742,49.052,2.477,49.726c2.689.356,6.931-3.484,9.2-4.988.947-3.563,10.718-16.747,12.8-24.7C27.247,9.422,22.248,4.2,21.793,5.186,20.922,7.166,21.642,19.122,10.582,29.97Z" transform="translate(-0.154 4.231)" fill="url(#linear-gradient-5)"/>
            <path id="Path_21" data-name="Path 21" d="M2.712,54.046a2.257,2.257,0,0,1-.72.04C2.22,54.086,2.447,54.046,2.712,54.046ZM4.871,3.925c-6.439,5.543-5.3,14.688,3.712,28.545,7.8,12-1.174,20.864-5.833,21.577.341-.04.72-.079,1.1-.158h0a34.364,34.364,0,0,0,8.976-4.355A37.625,37.625,0,0,0,29.489,15.089C28.012-.51,13.317-3.321,4.871,3.925Z" transform="translate(0.407 -0.129)" fill="url(#linear-gradient-6)"/>
          </g>
        </g>
      </g>
    </g>
  </g>
</svg>
