<svg xmlns="http://www.w3.org/2000/svg" width="367.568" height="65.133" viewBox="0 0 367.568 65.133">
  <g id="Group_2" data-name="Group 2" transform="translate(-63.78 -127.455)">
    <path id="Path_1" data-name="Path 1" d="M117.585,164.991q2.518.152,2.518,2.268a2.044,2.044,0,0,1-.981,1.839,4.7,4.7,0,0,1-2.8.531l-1.36-.1q-8.466-.6-8.466-9.072v-10.99h-2.524a3.2,3.2,0,0,1-2.091-.6,2.5,2.5,0,0,1,0-3.532,3.2,3.2,0,0,1,2.091-.6H106.5v-4.637a2.834,2.834,0,0,1,.856-2.167,3.246,3.246,0,0,1,2.32-.807,3.171,3.171,0,0,1,2.266.807,2.827,2.827,0,0,1,.859,2.167v4.637h4.284a3.2,3.2,0,0,1,2.091.6,2.5,2.5,0,0,1,0,3.532,3.2,3.2,0,0,1-2.091.6H112.8V160.91q0,3.729,3.425,3.98l1.363.1Zm25.3-2.37a1.693,1.693,0,0,1,1.386.657,2.712,2.712,0,0,1,.528,1.766,3.054,3.054,0,0,1-1.864,2.62,16.785,16.785,0,0,1-3.879,1.538,16.1,16.1,0,0,1-4.133.578q-5.948,0-9.426-3.425t-3.477-9.375a14.4,14.4,0,0,1,1.511-6.7,10.99,10.99,0,0,1,4.26-4.536,12.089,12.089,0,0,1,6.224-1.612,11.174,11.174,0,0,1,5.8,1.462,9.91,9.91,0,0,1,3.827,4.133,13.712,13.712,0,0,1,1.36,6.3q0,2.168-1.914,2.167H128.218a7.929,7.929,0,0,0,1.962,5.116,6.623,6.623,0,0,0,4.84,1.639,9.189,9.189,0,0,0,2.846-.4,28.167,28.167,0,0,0,2.8-1.111,5.593,5.593,0,0,1,2.217-.807Zm-8.719-14.061a5.4,5.4,0,0,0-4.107,1.615,7.6,7.6,0,0,0-1.839,4.635h11.39a7.192,7.192,0,0,0-1.511-4.661,4.989,4.989,0,0,0-3.933-1.589Zm26.913,21.217a13.056,13.056,0,0,1-6.476-1.561,10.644,10.644,0,0,1-4.308-4.435,15.432,15.432,0,0,1,.073-13.481,11.234,11.234,0,0,1,4.461-4.562,13.29,13.29,0,0,1,6.6-1.612,14.773,14.773,0,0,1,3.956.554,13.021,13.021,0,0,1,3.5,1.514,3.114,3.114,0,0,1,1.613,2.671,2.833,2.833,0,0,1-.528,1.79,1.674,1.674,0,0,1-1.386.679,2.98,2.98,0,0,1-1.158-.252,9.679,9.679,0,0,1-1.212-.606,13.675,13.675,0,0,0-2.117-1.032,6.613,6.613,0,0,0-2.316-.377,5.887,5.887,0,0,0-4.815,2.042,10.966,10.966,0,0,0,0,11.691,5.887,5.887,0,0,0,4.815,2.042,6.271,6.271,0,0,0,2.242-.377,18.753,18.753,0,0,0,2.191-1.036,9.7,9.7,0,0,1,1.311-.679,2.923,2.923,0,0,1,1.108-.229,1.668,1.668,0,0,1,1.36.707,2.747,2.747,0,0,1,.556,1.766,2.845,2.845,0,0,1-.38,1.488,3.4,3.4,0,0,1-1.233,1.134,13.274,13.274,0,0,1-3.63,1.587,15.681,15.681,0,0,1-4.234.578Zm28.073-25.651q8.668,0,8.667,10.131v12.4a2.953,2.953,0,0,1-.83,2.219,3.16,3.16,0,0,1-2.294.8,3.238,3.238,0,0,1-2.318-.8,2.892,2.892,0,0,1-.859-2.219v-12.4a5.827,5.827,0,0,0-1.084-3.906,4.3,4.3,0,0,0-3.4-1.233,5.751,5.751,0,0,0-4.361,1.711,6.378,6.378,0,0,0-1.637,4.588v11.237a2.892,2.892,0,0,1-.859,2.219,3.238,3.238,0,0,1-2.318.8,3.151,3.151,0,0,1-2.292-.8,2.937,2.937,0,0,1-.832-2.219V136.517a2.735,2.735,0,0,1,.883-2.117,3.264,3.264,0,0,1,2.292-.807,3.306,3.306,0,0,1,2.268.755,2.611,2.611,0,0,1,.859,2.067v11.743a8.243,8.243,0,0,1,3.35-3,10.6,10.6,0,0,1,4.765-1.035Zm48.379,1.962a2.8,2.8,0,0,1,1.035-1.36,2.623,2.623,0,0,1,1.486-.452,3.171,3.171,0,0,1,2.091.785,2.434,2.434,0,0,1,.936,1.941,2.576,2.576,0,0,1-.255,1.16l-8.316,19.5a3,3,0,0,1-1.235,1.462,3.468,3.468,0,0,1-1.839.5,3.392,3.392,0,0,1-1.79-.5,3.007,3.007,0,0,1-1.233-1.462l-6-14.412-5.8,14.412a3.016,3.016,0,0,1-1.237,1.462,3.552,3.552,0,0,1-3.65,0,2.965,2.965,0,0,1-1.261-1.462l-8.266-19.5a3.18,3.18,0,0,1-.252-1.111,2.507,2.507,0,0,1,1.009-1.99,3.406,3.406,0,0,1,2.217-.832,2.822,2.822,0,0,1,1.561.452,2.73,2.73,0,0,1,1.061,1.363l5.946,15.372,6.1-15.221a3.029,3.029,0,0,1,5.647,0l6.146,15.271,5.9-15.37Zm20.16-1.962q5.142,0,7.634,2.551t2.5,7.736v12.3a2.845,2.845,0,0,1-.807,2.141,3.049,3.049,0,0,1-2.219.785,2.952,2.952,0,0,1-2.143-.807,2.827,2.827,0,0,1-.83-2.118V165.6a6.566,6.566,0,0,1-2.7,3.074,8.088,8.088,0,0,1-4.257,1.106,9.893,9.893,0,0,1-4.486-1A8.028,8.028,0,0,1,247.2,166a7.006,7.006,0,0,1-1.16-3.933,6.227,6.227,0,0,1,1.386-4.281,8.3,8.3,0,0,1,4.514-2.268,40.816,40.816,0,0,1,8.62-.708h1.26v-1.158a5.166,5.166,0,0,0-1.059-3.6,4.5,4.5,0,0,0-3.428-1.134,10.939,10.939,0,0,0-2.971.427q-1.514.432-3.581,1.235a5.048,5.048,0,0,1-1.912.655,1.9,1.9,0,0,1-1.488-.655,2.484,2.484,0,0,1-.58-1.711,2.579,2.579,0,0,1,.427-1.488,4.034,4.034,0,0,1,1.438-1.183,16.409,16.409,0,0,1,4.208-1.514,21.805,21.805,0,0,1,4.808-.554Zm-1.561,21.118a5.379,5.379,0,0,0,4.1-1.688,6.11,6.11,0,0,0,1.589-4.36v-1.059h-.908a34.973,34.973,0,0,0-5.241.3A5.1,5.1,0,0,0,253,159.5a2.7,2.7,0,0,0-.807,2.067,3.422,3.422,0,0,0,1.134,2.649,4,4,0,0,0,2.8,1.032Zm31.849-21.017a2.7,2.7,0,0,1,2.061.554,2.458,2.458,0,0,1,.756,1.962,2.747,2.747,0,0,1-.655,2.015,4.009,4.009,0,0,1-2.367.856l-1.514.153a6.115,6.115,0,0,0-4.36,2.015,6.6,6.6,0,0,0-1.386,4.284v10.581a2.8,2.8,0,0,1-.906,2.242,3.345,3.345,0,0,1-2.269.785,3.238,3.238,0,0,1-2.242-.785,2.834,2.834,0,0,1-.883-2.242v-19.5a2.7,2.7,0,0,1,.883-2.167,3.244,3.244,0,0,1,2.19-.757,3.026,3.026,0,0,1,2.117.731,2.682,2.682,0,0,1,.807,2.091v2.015a7.457,7.457,0,0,1,2.846-3.425,8.705,8.705,0,0,1,4.21-1.36l.7-.052Zm24.546,18.395a1.7,1.7,0,0,1,1.386.657,2.726,2.726,0,0,1,.528,1.766,3.059,3.059,0,0,1-1.864,2.62,16.845,16.845,0,0,1-3.881,1.538,16.1,16.1,0,0,1-4.133.578q-5.948,0-9.42-3.425t-3.477-9.375a14.368,14.368,0,0,1,1.511-6.7,10.99,10.99,0,0,1,4.258-4.536,12.089,12.089,0,0,1,6.224-1.612,11.168,11.168,0,0,1,5.8,1.462,9.91,9.91,0,0,1,3.827,4.133,13.712,13.712,0,0,1,1.36,6.3q0,2.168-1.914,2.167H297.856a7.918,7.918,0,0,0,1.962,5.116,6.613,6.613,0,0,0,4.838,1.639,9.187,9.187,0,0,0,2.845-.4,28.18,28.18,0,0,0,2.8-1.111,5.58,5.58,0,0,1,2.219-.807ZM303.8,148.561a5.4,5.4,0,0,0-4.107,1.615,7.613,7.613,0,0,0-1.839,4.635h11.391a7.163,7.163,0,0,0-1.514-4.661,4.98,4.98,0,0,0-3.93-1.589Zm18.3,21.068a1.6,1.6,0,0,1-1.134-.4,1.518,1.518,0,0,1-.429-1.16V135.155a1.512,1.512,0,0,1,.429-1.158,1.579,1.579,0,0,1,1.134-.4,1.435,1.435,0,0,1,1.511,1.561v32.911a1.434,1.434,0,0,1-1.511,1.563Zm19.3-25.3q4.438,0,6.627,2.318t2.193,7.007v14.36a1.587,1.587,0,0,1-.4,1.136,1.652,1.652,0,0,1-2.217,0,1.577,1.577,0,0,1-.4-1.136v-3.022a7.948,7.948,0,0,1-3.077,3.5,8.693,8.693,0,0,1-4.635,1.233,9.793,9.793,0,0,1-4.336-.955,7.671,7.671,0,0,1-3.1-2.671,6.729,6.729,0,0,1-1.136-3.782,5.985,5.985,0,0,1,1.412-4.234,8.611,8.611,0,0,1,4.687-2.165,48.9,48.9,0,0,1,9.125-.657H347.2V153.4q0-3.328-1.363-4.864A5.437,5.437,0,0,0,341.554,147a13.944,13.944,0,0,0-7.108,1.962c-.1.069-.358.245-.785.531a2.035,2.035,0,0,1-1.079.429,1.049,1.049,0,0,1-.83-.38,1.368,1.368,0,0,1-.33-.931q0-1.111,1.766-2.167a15.78,15.78,0,0,1,3.933-1.563,17.2,17.2,0,0,1,4.284-.554Zm-1.668,22.731a7.05,7.05,0,0,0,5.366-2.217,7.892,7.892,0,0,0,2.094-5.644v-1.668h-.962a51.517,51.517,0,0,0-7.405.4,6.966,6.966,0,0,0-3.631,1.386,3.691,3.691,0,0,0-1.059,2.845,4.415,4.415,0,0,0,1.613,3.5A5.887,5.887,0,0,0,339.733,167.059Zm29.985-22.728a10.428,10.428,0,0,1,5.7,1.563,10.324,10.324,0,0,1,3.827,4.409,15.2,15.2,0,0,1,1.363,6.625,15.673,15.673,0,0,1-1.363,6.731,10.452,10.452,0,0,1-3.827,4.484,10.3,10.3,0,0,1-5.7,1.587,9.91,9.91,0,0,1-5.14-1.285,8.055,8.055,0,0,1-3.274-3.753v3.324a1.6,1.6,0,0,1-.4,1.136,1.451,1.451,0,0,1-1.111.427,1.472,1.472,0,0,1-1.563-1.563V135.155a1.472,1.472,0,0,1,1.563-1.561,1.451,1.451,0,0,1,1.111.427,1.6,1.6,0,0,1,.4,1.134v14.212a8.055,8.055,0,0,1,3.274-3.753,9.91,9.91,0,0,1,5.14-1.285Zm-.4,22.679a7.231,7.231,0,0,0,5.975-2.671q2.14-2.67,2.141-7.41t-2.141-7.333A7.383,7.383,0,0,0,369.265,147a7.065,7.065,0,0,0-5.9,2.62q-2.061,2.621-2.061,7.41t2.09,7.377a7.169,7.169,0,0,0,5.921,2.6Z" transform="translate(50.741 8.335)" fill="#fff" fill-rule="evenodd"/>
    <g id="Group_1" data-name="Group 1" transform="translate(63.78 127.455)">
      <path id="Path_2" data-name="Path 2" d="M102.86,140.482h13.027V127.455H63.78v39.08H76.807V140.482Z" transform="translate(-63.78 -127.455)" fill="#feb127" fill-rule="evenodd"/>
      <path id="Path_3" data-name="Path 3" d="M93.383,140.482v13.026H80.356v26.054H93.383v13.027h13.027V127.455H93.383Z" transform="translate(-41.275 -127.455)" fill="#da2a80" fill-rule="evenodd"/>
      <path id="Path_4" data-name="Path 4" d="M102.86,164.559H89.834V138.5H76.807v13.027H63.78v26.054h52.1V164.559Z" transform="translate(-63.78 -112.452)" fill="#00a2e9" fill-rule="evenodd"/>
      <rect id="Rectangle_1" data-name="Rectangle 1" width="13.027" height="13.027" transform="translate(52.106)" fill="#ab3614"/>
      <rect id="Rectangle_2" data-name="Rectangle 2" width="13.027" height="13.027" transform="translate(0 26.053)" fill="#04665c"/>
      <rect id="Rectangle_3" data-name="Rectangle 3" width="13.027" height="13.027" transform="translate(39.08 52.106)" fill="#382668"/>
    </g>
  </g>
</svg>
